<svg width="67" height="58" viewBox="0 0 67 58" fill="none" xmlns="http://www.w3.org/2000/svg">
<path d="M33.4997 15.5C33.5008 15.5 33.5008 15.5 33.4997 15.5C34.3215 15.5009 35.092 15.8003 35.6709 16.3428L60.1218 39.2954C60.507 39.6577 60.7185 40.1372 60.7185 40.6458V44.5818C60.7185 45.3646 60.217 46.0601 59.4381 46.3556C58.6697 46.6501 57.7914 46.4816 57.2041 45.9313L34.1802 24.3175C33.997 24.1461 33.7562 24.0521 33.5008 24.0521H33.4997C33.2432 24.0521 33.0014 24.147 32.8193 24.3175L9.79534 45.9323C9.20804 46.4835 8.32867 46.6511 7.56131 46.3566C6.78243 46.0611 6.28098 45.3646 6.28098 44.5818V40.6458C6.28098 40.1372 6.49245 39.6577 6.87665 39.2963L6.8777 39.2954L31.3285 16.3428C31.9074 15.7993 32.679 15.5 33.4997 15.5ZM58.6949 44.5721L58.6247 40.6458L34.1802 17.7029C33.998 17.5324 33.7562 17.4375 33.5008 17.4375H33.4997C33.2432 17.4375 33.0014 17.5324 32.8193 17.7029L8.37473 40.6506V44.5818L31.3285 22.9574C31.9085 22.413 32.679 22.1146 33.4997 22.1146C33.5008 22.1146 33.5008 22.1146 33.5008 22.1146C34.3215 22.1156 35.0931 22.4149 35.6709 22.9574L58.6949 44.5721Z" fill="#FECC37"/>
<path d="M20.7056 42.2668L32.8379 31.04C33.2472 30.6612 33.9109 30.6612 34.3213 31.04L46.4525 42.2668C47.1099 42.8752 46.6441 43.9166 45.7134 43.9166L21.4447 43.9166C20.5141 43.9166 20.0482 42.8752 20.7056 42.2668Z" fill="#FECC37"/>
</svg>
