<?xml version="1.0" encoding="UTF-8"?>
<svg xmlns="http://www.w3.org/2000/svg" xmlns:xlink="http://www.w3.org/1999/xlink" width="100pt" height="100pt" viewBox="0 0 100 100" version="1.1">
<g id="surface280083">
<path style=" stroke:none;fill-rule:nonzero;fill:rgb(6.27451%,18.039216%,50.980392%);fill-opacity:1;" d="M 25.921875 11.960938 C 25.367188 11.960938 24.921875 12.410156 24.921875 12.960938 L 24.921875 14.960938 L 22.691406 14.960938 C 17.855469 14.960938 13.921875 18.894531 13.921875 23.726562 L 13.921875 85.222656 C 13.921875 87.285156 15.597656 88.960938 17.660156 88.960938 L 83.433594 88.960938 C 85.355469 88.960938 86.921875 87.398438 86.921875 85.472656 L 86.921875 23.726562 C 86.921875 18.894531 82.988281 14.960938 78.152344 14.960938 L 75.921875 14.960938 L 75.921875 12.960938 C 75.921875 12.410156 75.476562 11.960938 74.921875 11.960938 C 74.367188 11.960938 73.921875 12.410156 73.921875 12.960938 L 73.921875 14.960938 L 68.921875 14.960938 L 68.921875 12.960938 C 68.921875 12.410156 68.476562 11.960938 67.921875 11.960938 C 67.367188 11.960938 66.921875 12.410156 66.921875 12.960938 L 66.921875 14.960938 L 61.921875 14.960938 L 61.921875 12.960938 C 61.921875 12.410156 61.476562 11.960938 60.921875 11.960938 C 60.367188 11.960938 59.921875 12.410156 59.921875 12.960938 L 59.921875 14.960938 L 54.921875 14.960938 L 54.921875 12.960938 C 54.921875 12.410156 54.476562 11.960938 53.921875 11.960938 C 53.367188 11.960938 52.921875 12.410156 52.921875 12.960938 L 52.921875 14.960938 L 47.921875 14.960938 L 47.921875 12.960938 C 47.921875 12.410156 47.476562 11.960938 46.921875 11.960938 C 46.367188 11.960938 45.921875 12.410156 45.921875 12.960938 L 45.921875 14.960938 L 40.921875 14.960938 L 40.921875 12.960938 C 40.921875 12.410156 40.476562 11.960938 39.921875 11.960938 C 39.367188 11.960938 38.921875 12.410156 38.921875 12.960938 L 38.921875 14.960938 L 33.921875 14.960938 L 33.921875 12.960938 C 33.921875 12.410156 33.476562 11.960938 32.921875 11.960938 C 32.367188 11.960938 31.921875 12.410156 31.921875 12.960938 L 31.921875 14.960938 L 26.921875 14.960938 L 26.921875 12.960938 C 26.921875 12.410156 26.476562 11.960938 25.921875 11.960938 Z M 22.691406 16.960938 L 24.921875 16.960938 L 24.921875 18.960938 C 24.921875 19.511719 25.367188 19.960938 25.921875 19.960938 C 26.476562 19.960938 26.921875 19.511719 26.921875 18.960938 L 26.921875 16.960938 L 31.921875 16.960938 L 31.921875 18.960938 C 31.921875 19.511719 32.367188 19.960938 32.921875 19.960938 C 33.476562 19.960938 33.921875 19.511719 33.921875 18.960938 L 33.921875 16.960938 L 38.921875 16.960938 L 38.921875 18.960938 C 38.921875 19.511719 39.367188 19.960938 39.921875 19.960938 C 40.476562 19.960938 40.921875 19.511719 40.921875 18.960938 L 40.921875 16.960938 L 45.921875 16.960938 L 45.921875 18.960938 C 45.921875 19.511719 46.367188 19.960938 46.921875 19.960938 C 47.476562 19.960938 47.921875 19.511719 47.921875 18.960938 L 47.921875 16.960938 L 52.921875 16.960938 L 52.921875 18.960938 C 52.921875 19.511719 53.367188 19.960938 53.921875 19.960938 C 54.476562 19.960938 54.921875 19.511719 54.921875 18.960938 L 54.921875 16.960938 L 59.921875 16.960938 L 59.921875 18.960938 C 59.921875 19.511719 60.367188 19.960938 60.921875 19.960938 C 61.476562 19.960938 61.921875 19.511719 61.921875 18.960938 L 61.921875 16.960938 L 66.921875 16.960938 L 66.921875 18.960938 C 66.921875 19.511719 67.367188 19.960938 67.921875 19.960938 C 68.476562 19.960938 68.921875 19.511719 68.921875 18.960938 L 68.921875 16.960938 L 73.921875 16.960938 L 73.921875 18.960938 C 73.921875 19.511719 74.367188 19.960938 74.921875 19.960938 C 75.476562 19.960938 75.921875 19.511719 75.921875 18.960938 L 75.921875 16.960938 L 78.152344 16.960938 C 81.882812 16.960938 84.921875 19.996094 84.921875 23.726562 L 84.921875 30.960938 L 81.421875 30.960938 C 81.144531 30.960938 80.921875 31.183594 80.921875 31.460938 C 80.921875 31.738281 81.144531 31.960938 81.421875 31.960938 L 84.921875 31.960938 L 84.921875 85.472656 C 84.921875 86.292969 84.253906 86.960938 83.433594 86.960938 L 17.660156 86.960938 C 16.699219 86.960938 15.921875 86.183594 15.921875 85.222656 L 15.921875 31.960938 L 75.421875 31.960938 C 75.699219 31.960938 75.921875 31.738281 75.921875 31.460938 C 75.921875 31.183594 75.699219 30.960938 75.421875 30.960938 L 15.921875 30.960938 L 15.921875 23.726562 C 15.921875 19.996094 18.957031 16.960938 22.691406 16.960938 Z M 24.421875 20.960938 C 23.042969 20.960938 21.921875 22.082031 21.921875 23.460938 C 21.921875 24.839844 23.042969 25.960938 24.421875 25.960938 C 25.800781 25.960938 26.921875 24.839844 26.921875 23.460938 C 26.921875 22.082031 25.800781 20.960938 24.421875 20.960938 Z M 76.421875 20.960938 C 75.042969 20.960938 73.921875 22.082031 73.921875 23.460938 C 73.921875 24.839844 75.042969 25.960938 76.421875 25.960938 C 77.800781 25.960938 78.921875 24.839844 78.921875 23.460938 C 78.921875 22.082031 77.800781 20.960938 76.421875 20.960938 Z M 24.421875 21.960938 C 25.25 21.960938 25.921875 22.632812 25.921875 23.460938 C 25.921875 24.289062 25.25 24.960938 24.421875 24.960938 C 23.59375 24.960938 22.921875 24.289062 22.921875 23.460938 C 22.921875 22.632812 23.59375 21.960938 24.421875 21.960938 Z M 76.421875 21.960938 C 77.25 21.960938 77.921875 22.632812 77.921875 23.460938 C 77.921875 24.289062 77.25 24.960938 76.421875 24.960938 C 75.59375 24.960938 74.921875 24.289062 74.921875 23.460938 C 74.921875 22.632812 75.59375 21.960938 76.421875 21.960938 Z M 77.421875 30.960938 C 77.144531 30.960938 76.921875 31.183594 76.921875 31.460938 C 76.921875 31.738281 77.144531 31.960938 77.421875 31.960938 L 79.421875 31.960938 C 79.699219 31.960938 79.921875 31.738281 79.921875 31.460938 C 79.921875 31.183594 79.699219 30.960938 79.421875 30.960938 Z M 36.421875 40.960938 C 36.144531 40.960938 35.921875 41.183594 35.921875 41.460938 C 35.921875 41.738281 36.144531 41.960938 36.421875 41.960938 L 37.921875 41.960938 L 37.921875 46.960938 L 32.921875 46.960938 L 32.921875 44.460938 C 32.921875 44.183594 32.699219 43.960938 32.421875 43.960938 C 32.144531 43.960938 31.921875 44.183594 31.921875 44.460938 L 31.921875 47.460938 C 31.921875 47.738281 32.144531 47.960938 32.421875 47.960938 L 38.421875 47.960938 C 38.699219 47.960938 38.921875 47.738281 38.921875 47.460938 L 38.921875 41.460938 C 38.921875 41.183594 38.699219 40.960938 38.421875 40.960938 Z M 42.421875 40.960938 C 42.144531 40.960938 41.921875 41.183594 41.921875 41.460938 L 41.921875 47.460938 C 41.921875 47.738281 42.144531 47.960938 42.421875 47.960938 L 48.421875 47.960938 C 48.699219 47.960938 48.921875 47.738281 48.921875 47.460938 L 48.921875 41.460938 C 48.921875 41.183594 48.699219 40.960938 48.421875 40.960938 Z M 52.421875 40.960938 C 52.144531 40.960938 51.921875 41.183594 51.921875 41.460938 L 51.921875 47.460938 C 51.921875 47.738281 52.144531 47.960938 52.421875 47.960938 L 58.421875 47.960938 C 58.699219 47.960938 58.921875 47.738281 58.921875 47.460938 L 58.921875 41.460938 C 58.921875 41.183594 58.699219 40.960938 58.421875 40.960938 Z M 62.421875 40.960938 C 62.144531 40.960938 61.921875 41.183594 61.921875 41.460938 L 61.921875 47.460938 C 61.921875 47.738281 62.144531 47.960938 62.421875 47.960938 L 68.421875 47.960938 C 68.699219 47.960938 68.921875 47.738281 68.921875 47.460938 L 68.921875 41.460938 C 68.921875 41.183594 68.699219 40.960938 68.421875 40.960938 Z M 72.421875 40.960938 C 72.144531 40.960938 71.921875 41.183594 71.921875 41.460938 L 71.921875 47.460938 C 71.921875 47.738281 72.144531 47.960938 72.421875 47.960938 L 78.421875 47.960938 C 78.699219 47.960938 78.921875 47.738281 78.921875 47.460938 L 78.921875 41.460938 C 78.921875 41.183594 78.699219 40.960938 78.421875 40.960938 Z M 42.921875 41.960938 L 47.921875 41.960938 L 47.921875 46.960938 L 42.921875 46.960938 Z M 52.921875 41.960938 L 57.921875 41.960938 L 57.921875 46.960938 L 52.921875 46.960938 Z M 62.921875 41.960938 L 67.921875 41.960938 L 67.921875 46.960938 L 62.921875 46.960938 Z M 72.921875 41.960938 L 77.921875 41.960938 L 77.921875 46.960938 L 72.921875 46.960938 Z M 22.421875 50.960938 C 22.144531 50.960938 21.921875 51.183594 21.921875 51.460938 L 21.921875 57.460938 C 21.921875 57.738281 22.144531 57.960938 22.421875 57.960938 L 28.421875 57.960938 C 28.699219 57.960938 28.921875 57.738281 28.921875 57.460938 L 28.921875 51.460938 C 28.921875 51.183594 28.699219 50.960938 28.421875 50.960938 Z M 32.421875 50.960938 C 32.144531 50.960938 31.921875 51.183594 31.921875 51.460938 L 31.921875 57.460938 C 31.921875 57.738281 32.144531 57.960938 32.421875 57.960938 L 38.421875 57.960938 C 38.699219 57.960938 38.921875 57.738281 38.921875 57.460938 L 38.921875 51.460938 C 38.921875 51.183594 38.699219 50.960938 38.421875 50.960938 Z M 42.421875 50.960938 C 42.144531 50.960938 41.921875 51.183594 41.921875 51.460938 L 41.921875 57.460938 C 41.921875 57.738281 42.144531 57.960938 42.421875 57.960938 L 48.421875 57.960938 C 48.699219 57.960938 48.921875 57.738281 48.921875 57.460938 L 48.921875 51.460938 C 48.921875 51.183594 48.699219 50.960938 48.421875 50.960938 Z M 52.421875 50.960938 C 52.144531 50.960938 51.921875 51.183594 51.921875 51.460938 L 51.921875 57.460938 C 51.921875 57.738281 52.144531 57.960938 52.421875 57.960938 L 58.421875 57.960938 C 58.699219 57.960938 58.921875 57.738281 58.921875 57.460938 L 58.921875 51.460938 C 58.921875 51.183594 58.699219 50.960938 58.421875 50.960938 Z M 62.421875 50.960938 C 62.144531 50.960938 61.921875 51.183594 61.921875 51.460938 L 61.921875 57.460938 C 61.921875 57.738281 62.144531 57.960938 62.421875 57.960938 L 68.421875 57.960938 C 68.699219 57.960938 68.921875 57.738281 68.921875 57.460938 L 68.921875 51.460938 C 68.921875 51.183594 68.699219 50.960938 68.421875 50.960938 Z M 72.421875 50.960938 C 72.144531 50.960938 71.921875 51.183594 71.921875 51.460938 L 71.921875 57.460938 C 71.921875 57.738281 72.144531 57.960938 72.421875 57.960938 L 78.421875 57.960938 C 78.699219 57.960938 78.921875 57.738281 78.921875 57.460938 L 78.921875 51.460938 C 78.921875 51.183594 78.699219 50.960938 78.421875 50.960938 Z M 22.921875 51.960938 L 27.921875 51.960938 L 27.921875 56.960938 L 22.921875 56.960938 Z M 32.921875 51.960938 L 37.921875 51.960938 L 37.921875 56.960938 L 32.921875 56.960938 Z M 42.921875 51.960938 L 47.921875 51.960938 L 47.921875 56.960938 L 42.921875 56.960938 Z M 52.921875 51.960938 L 57.921875 51.960938 L 57.921875 56.960938 L 52.921875 56.960938 Z M 62.921875 51.960938 L 67.921875 51.960938 L 67.921875 56.960938 L 62.921875 56.960938 Z M 72.921875 51.960938 L 77.921875 51.960938 L 77.921875 56.960938 L 72.921875 56.960938 Z M 22.421875 60.960938 C 22.144531 60.960938 21.921875 61.183594 21.921875 61.460938 L 21.921875 67.460938 C 21.921875 67.738281 22.144531 67.960938 22.421875 67.960938 L 28.421875 67.960938 C 28.699219 67.960938 28.921875 67.738281 28.921875 67.460938 L 28.921875 61.460938 C 28.921875 61.183594 28.699219 60.960938 28.421875 60.960938 Z M 32.421875 60.960938 C 32.144531 60.960938 31.921875 61.183594 31.921875 61.460938 L 31.921875 67.460938 C 31.921875 67.738281 32.144531 67.960938 32.421875 67.960938 L 38.421875 67.960938 C 38.699219 67.960938 38.921875 67.738281 38.921875 67.460938 L 38.921875 61.460938 C 38.921875 61.183594 38.699219 60.960938 38.421875 60.960938 Z M 42.421875 60.960938 C 42.144531 60.960938 41.921875 61.183594 41.921875 61.460938 L 41.921875 67.460938 C 41.921875 67.738281 42.144531 67.960938 42.421875 67.960938 L 48.421875 67.960938 C 48.699219 67.960938 48.921875 67.738281 48.921875 67.460938 L 48.921875 61.460938 C 48.921875 61.183594 48.699219 60.960938 48.421875 60.960938 Z M 52.421875 60.960938 C 52.144531 60.960938 51.921875 61.183594 51.921875 61.460938 L 51.921875 67.460938 C 51.921875 67.738281 52.144531 67.960938 52.421875 67.960938 L 58.421875 67.960938 C 58.699219 67.960938 58.921875 67.738281 58.921875 67.460938 L 58.921875 61.460938 C 58.921875 61.183594 58.699219 60.960938 58.421875 60.960938 Z M 62.421875 60.960938 C 62.144531 60.960938 61.921875 61.183594 61.921875 61.460938 L 61.921875 67.460938 C 61.921875 67.738281 62.144531 67.960938 62.421875 67.960938 L 68.421875 67.960938 C 68.699219 67.960938 68.921875 67.738281 68.921875 67.460938 L 68.921875 61.460938 C 68.921875 61.183594 68.699219 60.960938 68.421875 60.960938 Z M 72.421875 60.960938 C 72.144531 60.960938 71.921875 61.183594 71.921875 61.460938 L 71.921875 67.460938 C 71.921875 67.738281 72.144531 67.960938 72.421875 67.960938 L 78.421875 67.960938 C 78.699219 67.960938 78.921875 67.738281 78.921875 67.460938 L 78.921875 61.460938 C 78.921875 61.183594 78.699219 60.960938 78.421875 60.960938 Z M 22.921875 61.960938 L 27.921875 61.960938 L 27.921875 66.960938 L 22.921875 66.960938 Z M 32.921875 61.960938 L 37.921875 61.960938 L 37.921875 66.960938 L 32.921875 66.960938 Z M 42.921875 61.960938 L 47.921875 61.960938 L 47.921875 66.960938 L 42.921875 66.960938 Z M 52.921875 61.960938 L 57.921875 61.960938 L 57.921875 66.960938 L 52.921875 66.960938 Z M 62.921875 61.960938 L 67.921875 61.960938 L 67.921875 66.960938 L 62.921875 66.960938 Z M 72.921875 61.960938 L 77.921875 61.960938 L 77.921875 66.960938 L 72.921875 66.960938 Z M 22.421875 70.960938 C 22.144531 70.960938 21.921875 71.183594 21.921875 71.460938 L 21.921875 77.460938 C 21.921875 77.738281 22.144531 77.960938 22.421875 77.960938 L 28.421875 77.960938 C 28.699219 77.960938 28.921875 77.738281 28.921875 77.460938 L 28.921875 71.460938 C 28.921875 71.183594 28.699219 70.960938 28.421875 70.960938 Z M 32.421875 70.960938 C 32.144531 70.960938 31.921875 71.183594 31.921875 71.460938 L 31.921875 77.460938 C 31.921875 77.738281 32.144531 77.960938 32.421875 77.960938 L 38.421875 77.960938 C 38.699219 77.960938 38.921875 77.738281 38.921875 77.460938 L 38.921875 71.460938 C 38.921875 71.183594 38.699219 70.960938 38.421875 70.960938 Z M 42.421875 70.960938 C 42.144531 70.960938 41.921875 71.183594 41.921875 71.460938 L 41.921875 77.460938 C 41.921875 77.738281 42.144531 77.960938 42.421875 77.960938 L 48.421875 77.960938 C 48.699219 77.960938 48.921875 77.738281 48.921875 77.460938 L 48.921875 71.460938 C 48.921875 71.183594 48.699219 70.960938 48.421875 70.960938 Z M 52.421875 70.960938 C 52.144531 70.960938 51.921875 71.183594 51.921875 71.460938 L 51.921875 77.460938 C 51.921875 77.738281 52.144531 77.960938 52.421875 77.960938 L 57.421875 77.960938 C 57.699219 77.960938 57.921875 77.738281 57.921875 77.460938 C 57.921875 77.183594 57.699219 76.960938 57.421875 76.960938 L 52.921875 76.960938 L 52.921875 71.960938 L 57.921875 71.960938 L 57.921875 75.460938 C 57.921875 75.738281 58.144531 75.960938 58.421875 75.960938 C 58.699219 75.960938 58.921875 75.738281 58.921875 75.460938 L 58.921875 71.460938 C 58.921875 71.183594 58.699219 70.960938 58.421875 70.960938 Z M 22.921875 71.960938 L 27.921875 71.960938 L 27.921875 76.960938 L 22.921875 76.960938 Z M 32.921875 71.960938 L 37.921875 71.960938 L 37.921875 76.960938 L 32.921875 76.960938 Z M 42.921875 71.960938 L 47.921875 71.960938 L 47.921875 76.960938 L 42.921875 76.960938 Z M 42.921875 71.960938 "/>
</g>
</svg>
