<svg width="50" height="50" viewBox="0 0 50 50" fill="none" xmlns="http://www.w3.org/2000/svg">
<path d="M25 0C18.9098 0 14.0803 1.60006 11.0085 4.50721C7.93679 7.41436 6.81818 11.2305 6.81818 15.2043V17.3077H13.6364V15.2043C13.6364 12.1394 14.4531 9.86328 16.0511 8.35336C17.6491 6.84345 20.2237 5.76923 25 5.76923C29.7852 5.76923 32.3597 6.79838 33.9489 8.29327C35.538 9.78816 36.3636 12.1094 36.3636 15.2043V17.3077H43.1818V15.2043C43.1818 11.2079 42.0721 7.34676 38.9915 4.44712C35.9109 1.54748 31.0813 0 25 0ZM6.81818 19.2308C3.05398 19.2308 0 21.8149 0 25V44.2308C0 47.4159 3.05398 50 6.81818 50H43.1818C46.946 50 50 47.4159 50 44.2308V25C50 21.8149 46.946 19.2308 43.1818 19.2308H6.81818ZM11.3636 30.7692C13.8761 30.7692 15.9091 32.4895 15.9091 34.6154C15.9091 36.7413 13.8761 38.4615 11.3636 38.4615C8.85121 38.4615 6.81818 36.7413 6.81818 34.6154C6.81818 32.4895 8.85121 30.7692 11.3636 30.7692ZM25 30.7692C27.5124 30.7692 29.5455 32.4895 29.5455 34.6154C29.5455 36.7413 27.5124 38.4615 25 38.4615C22.4876 38.4615 20.4545 36.7413 20.4545 34.6154C20.4545 32.4895 22.4876 30.7692 25 30.7692ZM38.6364 30.7692C41.1488 30.7692 43.1818 32.4895 43.1818 34.6154C43.1818 36.7413 41.1488 38.4615 38.6364 38.4615C36.1239 38.4615 34.0909 36.7413 34.0909 34.6154C34.0909 32.4895 36.1239 30.7692 38.6364 30.7692Z" fill="white"/>
</svg>
