<svg width="25" height="18" viewBox="0 0 25 18" fill="none" xmlns="http://www.w3.org/2000/svg">
<path d="M6.25 0L0.423177 4.16667L6.25 8.33333V5.20833H17.7083C20.577 5.20833 22.9167 7.54802 22.9167 10.4167C22.9167 13.2853 20.577 15.625 17.7083 15.625H12.5V17.7083H17.7083C21.7122 17.7083 25 14.4206 25 10.4167C25 6.41276 21.7122 3.125 17.7083 3.125H6.25V0ZM0 15.625V17.7083H2.08333V15.625H0ZM3.125 15.625V17.7083H5.20833V15.625H3.125ZM6.25 15.625V17.7083H8.33333V15.625H6.25ZM9.375 15.625V17.7083H11.4583V15.625H9.375Z" fill="#FECC37"/>
</svg>
