<svg width="20" height="20" viewBox="0 0 20 20" fill="none" xmlns="http://www.w3.org/2000/svg">
<path d="M15.0781 0L10 5.91146L14.0885 10L20 4.92188L15.0781 0ZM9.58333 7.16146C8.0013 8.74349 6.16211 9.16667 2.99479 9.16667C2.41211 11.9987 0.748698 16.9987 0 19.1667L5.15625 14.0885C5.07162 14.0039 5.07812 13.8379 5.07812 13.6719C5.07812 13.0046 5.66081 12.4219 6.32812 12.4219C6.99544 12.4219 7.57812 13.0046 7.57812 13.6719C7.57812 14.3392 6.99544 14.9219 6.32812 14.9219C6.16211 14.9219 5.99609 14.9284 5.91146 14.8438L0.755208 19.9219C2.92318 19.1732 7.92318 17.5098 10.7552 16.9271C10.7552 13.8444 11.1523 12.0052 12.7344 10.3385L9.58333 7.16146Z" fill="#102E82"/>
</svg>
