<svg width="60" height="60" viewBox="0 0 60 60" fill="none" xmlns="http://www.w3.org/2000/svg">
<path d="M16.1538 0C14.8828 0 13.8462 1.03666 13.8462 2.30769V9.23077C13.8462 10.5018 14.8828 11.5385 16.1538 11.5385C17.4249 11.5385 18.4615 10.5018 18.4615 9.23077V2.30769C18.4615 1.03666 17.4249 0 16.1538 0ZM43.8462 0C42.5751 0 41.5385 1.03666 41.5385 2.30769V9.23077C41.5385 10.5018 42.5751 11.5385 43.8462 11.5385C45.1172 11.5385 46.1538 10.5018 46.1538 9.23077V2.30769C46.1538 1.03666 45.1172 0 43.8462 0ZM6.92308 4.61538C3.10096 4.61538 0 7.71635 0 11.5385V53.0769C0 56.899 3.10096 60 6.92308 60H53.0769C56.899 60 60 56.899 60 53.0769V11.5385C60 7.71635 56.899 4.61538 53.0769 4.61538H48.4615V9.23077C48.4615 11.7819 46.3972 13.8462 43.8462 13.8462C41.2951 13.8462 39.2308 11.7819 39.2308 9.23077V4.61538H20.7692V9.23077C20.7692 11.7819 18.7049 13.8462 16.1538 13.8462C13.6028 13.8462 11.5385 11.7819 11.5385 9.23077V4.61538H6.92308ZM4.61538 20.7692H55.3846V53.0769C55.3846 54.348 54.348 55.3846 53.0769 55.3846H6.92308C5.65204 55.3846 4.61538 54.348 4.61538 53.0769V20.7692ZM20.7692 27.6923V33.0288H31.875L23.149 50.6971H31.1538L39.1587 31.226V27.6923H20.7692Z" fill="#FECC37"/>
</svg>
