<svg width="22" height="26" viewBox="0 0 22 26" fill="none" xmlns="http://www.w3.org/2000/svg">
<path d="M8.99219 0C7.35156 0 6 1.35156 6 2.99219V4H0V6H2V23C2 24.6484 3.35156 26 5 26H17C18.6484 26 20 24.6484 20 23V6H22V4H16V2.99219C16 1.35156 14.6484 0 13.0078 0H8.99219ZM8.99219 2H13.0078C13.5703 2 14 2.42969 14 2.99219V4H8V2.99219C8 2.42969 8.42969 2 8.99219 2ZM4 6H18V23C18 23.5625 17.5625 24 17 24H5C4.4375 24 4 23.5625 4 23V6ZM6 8V22H8V8H6ZM10 8V22H12V8H10ZM14 8V22H16V8H14Z" fill="#102E82"/>
</svg>
