<?xml version="1.0" encoding="UTF-8" standalone="no"?>
<!DOCTYPE svg PUBLIC "-//W3C//DTD SVG 1.1//EN" "http://www.w3.org/Graphics/SVG/1.1/DTD/svg11.dtd">
<svg width="100%" height="100%" viewBox="0 0 4445 4445" version="1.1" xmlns="http://www.w3.org/2000/svg" xmlns:xlink="http://www.w3.org/1999/xlink" xml:space="preserve" xmlns:serif="http://www.serif.com/" style="fill-rule:evenodd;clip-rule:evenodd;stroke-linejoin:round;stroke-miterlimit:2;">
    <g transform="matrix(5.55556,0,0,5.55556,0,0)">
        <g transform="matrix(4.16667,0,0,4.16667,-1299.06,8.9697)">
            <rect x="-27.915" y="-10.771" width="537.721" height="211.765" style="fill:rgb(59,185,135);fill-rule:nonzero;"/>
        </g>
        <g transform="matrix(4.16667,0,0,4.16667,-1326.06,10.9697)">
            <path d="M377.301,35.523L418.852,31.162L422.676,67.588L381.13,71.95" style="fill:rgb(255,202,68);fill-rule:nonzero;"/>
        </g>
        <g transform="matrix(4.16667,0,0,4.16667,-1326.06,10.9697)">
            <path d="M419.546,37.785L456.276,33.93L442.837,53.752L460.105,70.356L417.053,74.877L416.356,68.254" style="fill:rgb(255,202,68);fill-rule:nonzero;"/>
        </g>
        <g transform="matrix(4.16667,0,0,4.16667,-1326.06,10.9697)">
            <path d="M374.182,32.591L411.789,28.643L415.309,62.118L377.699,66.071L374.182,32.591ZM447.521,31.587L435.171,49.805L451.033,65.06L415.449,68.805L418.572,64.759L415.442,34.956L447.521,31.587ZM412.495,67.77L412.247,65.424L414.489,65.185L412.495,67.77ZM409.988,72.365L457.696,67.35L439.032,49.396L453.563,27.966L415.133,32.005L414.438,25.378L373.871,29.636L373.306,24.236L368.381,24.755L382.854,162.603L387.78,162.09L378.007,69.025L409.292,65.732L409.988,72.365Z" style="fill:rgb(43,53,143);fill-rule:nonzero;"/>
        </g>
    </g>
</svg>
