<?xml version="1.0"?>
<svg xmlns="http://www.w3.org/2000/svg" fill="#FFF" viewBox="0 0 24 24" width="48px" height="48px">    <path d="M 12 3 A 4 4 0 0 0 8 7 A 4 4 0 0 0 12 11 A 4 4 0 0 0 16 7 A 4 4 0 0 0 12 3 z M 8.4726562 14.501953 C 8.3892187 14.501469 8.3049063 14.511953 8.2226562 14.533203 C 5.5926562 15.209203 3 16.532 3 18.5 L 3 20 C 3 20.552 3.448 21 4 21 L 20 21 C 20.552 21 21 20.552 21 20 L 21 18.5 C 21 16.532 18.406391 15.209203 15.775391 14.533203 C 15.446391 14.448203 15.090516 14.539203 14.853516 14.783203 C 14.129516 15.530203 13.123 16 12 16 C 10.877 16 9.8714844 15.530203 9.1464844 14.783203 C 8.9687344 14.600203 8.7229687 14.503406 8.4726562 14.501953 z"/></svg>
