<svg fill="#000000" xmlns="http://www.w3.org/2000/svg" viewBox="0 0 24 24" width="48px" height="48px"><path d="M 8 1 C 6.34375 1 5 2.34375 5 4 C 5 5.65625 6.34375 7 8 7 C 9.65625 7 11 5.65625 11 4 C 11 2.34375 9.65625 1 8 1 Z M 16 1 C 14.34375 1 13 2.34375 13 4 C 13 5.65625 14.34375 7 16 7 C 17.65625 7 19 5.65625 19 4 C 19 2.34375 17.65625 1 16 1 Z M 4 7 C 2.34375 7 1 8.34375 1 10 C 1 11.65625 2.34375 13 4 13 C 5.65625 13 7 11.65625 7 10 C 7 8.34375 5.65625 7 4 7 Z M 20 7 C 18.34375 7 17 8.34375 17 10 C 17 11.65625 18.34375 13 20 13 C 21.65625 13 23 11.65625 23 10 C 23 8.34375 21.65625 7 20 7 Z M 12 12 C 10.34375 12 9 13.34375 9 15 C 9 16.65625 10.34375 18 12 18 C 13.65625 18 15 16.65625 15 15 C 15 13.34375 13.65625 12 12 12 Z M 2.09375 13.5 C 0.894531 14.199219 0 15.5 0 17 L 0 18.1875 C 0 18.1875 1 19 4 19 C 7 19 8 18.1875 8 18.1875 L 8 17 C 8 15.5 7.105469 14.199219 5.90625 13.5 C 5.304688 13.800781 4.699219 14 4 14 C 3.300781 14 2.695313 13.800781 2.09375 13.5 Z M 18.09375 13.5 C 16.894531 14.199219 16 15.5 16 17 L 16 18.1875 C 16 18.1875 17 19 20 19 C 23 19 24 18.1875 24 18.1875 L 24 17 C 24 15.5 23.105469 14.199219 21.90625 13.5 C 21.304688 13.800781 20.699219 14 20 14 C 19.300781 14 18.695313 13.800781 18.09375 13.5 Z M 10.09375 18.5 C 8.894531 19.199219 8 20.5 8 22 L 8 23.1875 C 8 23.1875 9 24 12 24 C 15 24 16 23.1875 16 23.1875 L 16 22 C 16 20.5 15.105469 19.199219 13.90625 18.5 C 13.304688 18.800781 12.699219 19 12 19 C 11.300781 19 10.695313 18.800781 10.09375 18.5 Z"/></svg>