<svg width="100" height="100" viewBox="0 0 100 100" fill="none" xmlns="http://www.w3.org/2000/svg">
<path d="M66.5 14C62.3697 14 59 17.3697 59 21.5C59 25.6303 62.3697 29 66.5 29C70.6303 29 74 25.6303 74 21.5C74 17.3697 70.6303 14 66.5 14ZM66.5 16C69.5494 16 72 18.4506 72 21.5C72 24.5494 69.5494 27 66.5 27C63.4506 27 61 24.5494 61 21.5C61 18.4506 63.4506 16 66.5 16ZM42.8633 25.002C42.33 25.0166 41.7985 25.1166 41.291 25.3008L30.291 29.3008C27.7071 30.2405 26.3611 33.1251 27.3008 35.709C28.2394 38.2932 31.1243 39.6388 33.709 38.6992L43.1445 35.2676L47.9648 36.7285L41.1582 49.9766L34.5781 59H21C18.2505 59 16 61.2505 16 64C16 66.7495 18.2505 69 21 69H37C38.146 69 39.2462 68.6061 40.125 67.9023C40.2384 67.8114 40.206 67.8328 40.2402 67.8008C40.2745 67.7687 40.3165 67.7276 40.3711 67.6758C40.4803 67.5721 40.6327 67.4279 40.8203 67.248C41.1955 66.8883 41.7153 66.3875 42.3223 65.8027C43.3655 64.7977 44.6867 63.5202 45.9492 62.3008L55.5762 68.1641L49.6582 78.5195C48.2941 80.9066 49.1317 83.9768 51.5195 85.3418C51.5202 85.3418 51.5208 85.3418 51.5215 85.3418C52.2999 85.7857 53.1547 86 53.9961 86C55.7326 86 57.4231 85.0888 58.3418 83.4805L66.3418 69.4805C67.5058 67.4441 67.089 64.8582 65.3477 63.2871L56.2539 54.8027L60.9453 46.3477L63.8164 50.7363C64.7385 52.1483 66.3137 53 68 53H79C81.7495 53 84 50.7495 84 48C84 45.2505 81.7495 43 79 43H70.7051L64.4805 33.4805C63.3244 31.7132 61.5782 30.4054 59.5586 29.793L44.4492 25.2148C43.9316 25.0579 43.3966 24.9873 42.8633 25.002ZM42.918 27.002C43.2376 26.993 43.5587 27.0348 43.8691 27.1289L46.7422 28L44.3652 33.5488L43.4043 33.2578C43.1978 33.1948 42.9765 33.2003 42.7734 33.2734L33.0254 36.8184C31.4561 37.3888 29.751 36.5931 29.1816 35.0254C28.6114 33.4573 29.4065 31.7519 30.9746 31.1816L41.9746 27.1816C42.2801 27.0708 42.5983 27.0109 42.918 27.002ZM47.7051 28.291L58.9785 31.707C60.5469 32.1826 61.9087 33.2034 62.8066 34.5762L68.4434 43.1973L63.4824 46.5684L61.7129 43.8633C61.6186 43.7188 61.4886 43.6011 61.3354 43.5217C61.1823 43.4424 61.0112 43.4039 60.8388 43.4102C60.6664 43.4165 60.4985 43.4673 60.3516 43.5576C60.2046 43.648 60.0835 43.7748 60 43.9258L54.1523 54.4668L44.2344 48.3652L50.293 36.5762C50.3599 36.4458 50.3974 36.3024 50.4028 36.156C50.4082 36.0095 50.3813 35.8637 50.3241 35.7288C50.2669 35.5939 50.1808 35.4732 50.0718 35.3753C49.9628 35.2774 49.8336 35.2046 49.6934 35.1621L45.3262 33.8398L47.7051 28.291ZM68.9902 44.0332L69.3262 44.5469C69.4171 44.6861 69.5414 44.8005 69.6877 44.8796C69.834 44.9587 69.9977 45.0001 70.1641 45H79C80.6685 45 82 46.3315 82 48C82 49.6685 80.6685 51 79 51H68C66.9863 51 66.0441 50.4906 65.4902 49.6426L64.0273 47.4062L68.9902 44.0332ZM43.7773 49.2578L54.3594 55.7695L59.1465 60.2344L54.8125 65.3574L45.2793 59.5527C45.262 59.5418 45.2445 59.5314 45.2266 59.5215C43.1741 58.4384 42 56.3554 42 54.2031C42 53.2372 42.2212 52.2629 42.7012 51.3535C42.7025 51.3503 42.7038 51.347 42.7051 51.3438L43.7773 49.2578ZM40.0469 54.8945C40.275 57.481 41.7589 59.8952 44.1855 61.2246C43.1531 62.2214 42.1124 63.2262 41.2305 64.0762L36.5098 59.7461L40.0469 54.8945ZM35.916 60.5605L40.5098 64.7715C40.1141 65.152 39.7029 65.5464 39.4355 65.8027C39.2491 65.9815 39.0992 66.1268 38.9941 66.2266C38.9416 66.2765 38.9005 66.3142 38.873 66.3398L38.875 66.3418C38.3477 66.764 37.688 67 37 67H21C19.3315 67 18 65.6685 18 64C18 62.3315 19.3315 61 21 61H35.0859C35.2435 61.0002 35.3989 60.9631 35.5394 60.8918C35.6799 60.8205 35.8016 60.7171 35.8945 60.5898L35.916 60.5605ZM59.8789 60.918L63.9941 64.7578C63.998 64.7617 64.0019 64.7657 64.0059 64.7695C65.0598 65.7188 65.3088 67.2579 64.6055 68.4883L56.6055 82.4883C56.0482 83.4639 55.0376 84 53.9961 84C53.4915 84 52.9853 83.8736 52.5117 83.6035C51.0626 82.7741 50.5669 80.9601 51.3945 79.5117L57.7949 68.3105C57.9239 68.0846 57.9598 67.8172 57.8949 67.5652C57.83 67.3132 57.6694 67.0965 57.4473 66.9609L55.6777 65.8828L59.8789 60.918Z" fill="#102E82"/>
</svg>
