<svg width="25" height="18" viewBox="0 0 25 18" fill="none" xmlns="http://www.w3.org/2000/svg">
<path d="M6.25 0.083252L0.423177 4.24992L6.25 8.41659V5.29159H17.7083C20.577 5.29159 22.9167 7.63127 22.9167 10.4999C22.9167 13.3686 20.577 15.7083 17.7083 15.7083H12.5V17.7916H17.7083C21.7122 17.7916 25 14.5038 25 10.4999C25 6.49601 21.7122 3.20825 17.7083 3.20825H6.25V0.083252ZM0 15.7083V17.7916H2.08333V15.7083H0ZM3.125 15.7083V17.7916H5.20833V15.7083H3.125ZM6.25 15.7083V17.7916H8.33333V15.7083H6.25ZM9.375 15.7083V17.7916H11.4583V15.7083H9.375Z" fill="#102E82"/>
</svg>
