<svg width="26" height="26" viewBox="0 0 26 26" fill="none" xmlns="http://www.w3.org/2000/svg">
<path d="M18 9H15V2H18V9ZM26 6V23C26 24.6562 24.6562 26 23 26H3C1.34375 26 0 24.6562 0 23V3C0 1.34375 1.34375 0 3 0H20C20.8281 0 21.2852 0.0429688 23.6211 2.37891C25.957 4.71484 26 5.17188 26 6ZM5 9C5 9.55078 5.44922 10 6 10H19C19.5508 10 20 9.55078 20 9V2C20 1.44922 19.5508 1 19 1H6C5.44922 1 5 1.44922 5 2V9ZM23 14C23 13.4492 22.5508 13 22 13H4C3.44922 13 3 13.4492 3 14V24C3 24.5508 3.44922 25 4 25H22C22.5508 25 23 24.5508 23 24V14Z" fill="#102E82" fill-opacity="0.8"/>
</svg>
