<svg width="42" height="42" viewBox="0 0 42 42" fill="none" xmlns="http://www.w3.org/2000/svg">
<g filter="url(#filter0_d)">
<path d="M18.5 34V30C30.5 30 33.5 21.3333 33.5 17C33.5 6.6 23.5 4 18.5 4V0C34.1 0.4 37.6667 11.5 37.5 17C37.1 30.6 24.6667 34 18.5 34Z" opacity="0.8" fill="#4AB079"/>
<path d="M12 17L18.5 23.5L23.5 18.75L28.5 14L26 12L18.5 19.5L14.5 15L12 17Z" opacity="0.8" fill="#4AB079"/>
<path d="M16 30L14.5 32.5C11.3 31.3 11.5 30.3333 12 30L13.5 28L16 30Z" opacity="0.8" fill="#4AB079"/>
<path d="M6.5 26C6.5 27.2 7.83333 28.1667 8.5 28.5L10.5 26L9 24.5L6.5 26Z" opacity="0.8" fill="#4AB079"/>
<path d="M4 18.75C4 21.5 4.66667 21.5 5 22H7.5V18.75H4Z" opacity="0.8" fill="#4AB079"/>
<path d="M4.5 12C4.1 12 4 14 4 15H7.5V12.5C6.66667 12.3333 4.9 12 4.5 12Z" opacity="0.8" fill="#4AB079"/>
<path d="M8.5 5.5C7.3 5.9 6.66667 7.33333 6.5 8L9 9.5L10.5 7.5L8.5 5.5Z" opacity="0.8" fill="#4AB079"/>
<path d="M14.5 1.5C12.5 1.5 12.1667 2.33333 11.5 3L13.5 5.5L15.5 4C15.3333 3.33333 15.0657 1.5 14.5 1.5Z" opacity="0.8" fill="#4AB079"/>
</g>
<defs>
<filter id="filter0_d" x="0" y="0" width="41.5055" height="42" filterUnits="userSpaceOnUse" color-interpolation-filters="sRGB">
<feFlood flood-opacity="0" result="BackgroundImageFix"/>
<feColorMatrix in="SourceAlpha" type="matrix" values="0 0 0 0 0 0 0 0 0 0 0 0 0 0 0 0 0 0 127 0"/>
<feOffset dy="4"/>
<feGaussianBlur stdDeviation="2"/>
<feColorMatrix type="matrix" values="0 0 0 0 0 0 0 0 0 0 0 0 0 0 0 0 0 0 0.5 0"/>
<feBlend mode="normal" in2="BackgroundImageFix" result="effect1_dropShadow"/>
<feBlend mode="normal" in="SourceGraphic" in2="effect1_dropShadow" result="shape"/>
</filter>
</defs>
</svg>
