<svg width="52" height="52" viewBox="0 0 52 52" fill="none" xmlns="http://www.w3.org/2000/svg">
<path d="M26 0.75C12.1 0.75 0.75 12.1 0.75 26C0.75 39.9 12.1 51.25 26 51.25C39.9 51.25 51.25 39.9 51.25 26C51.25 12.1 39.9 0.75 26 0.75ZM26 3.75C38.25 3.75 48.25 13.75 48.25 26C48.25 38.25 38.25 48.25 26 48.25C13.75 48.25 3.75 38.25 3.75 26C3.75 13.75 13.75 3.75 26 3.75ZM26 9.5C25.15 9.5 24.5 10.15 24.5 11V23.4004C23.6 23.9004 23 24.9 23 26C23 27.65 24.35 29 26 29C27.1 29 28.0996 28.4 28.5996 27.5H36C36.85 27.5 37.5 26.85 37.5 26C37.5 25.15 36.85 24.5 36 24.5H28.5996C28.3496 24.05 27.95 23.6504 27.5 23.4004V11C27.5 10.15 26.85 9.5 26 9.5ZM23.5 37C22.65 37 22 37.65 22 38.5C22 39.35 22.65 40 23.5 40H28.5C29.35 40 30 39.35 30 38.5C30 37.65 29.35 37 28.5 37H23.5Z" fill="#FECC37"/>
</svg>
